<?xml version="1.0" encoding="utf-8"?>
<!-- Generator: Adobe Illustrator 19.0.0, SVG Export Plug-In . SVG Version: 6.00 Build 0)  -->
<svg version="1.1" id="Layer_1" xmlns="http://www.w3.org/2000/svg" xmlns:xlink="http://www.w3.org/1999/xlink" x="0px" y="0px"
	 viewBox="0 0 841.9 595.3" style="enable-background:new 0 0 841.9 595.3;" xml:space="preserve">
<style type="text/css">
	.st0{fill:url(#XMLID_5_);}
	.st1{fill:url(#XMLID_6_);}
	.st2{fill:url(#XMLID_7_);}
	.st3{fill:url(#XMLID_8_);}
	.st4{fill:url(#XMLID_9_);}
	.st5{fill:url(#XMLID_10_);}
	.st6{fill:url(#XMLID_11_);}
	.st7{fill:url(#XMLID_12_);}
	.st8{fill:url(#XMLID_13_);}
	.st9{fill:url(#XMLID_18_);}
	.st10{display:none;}
	.st11{display:inline;}
	.st12{fill:#313134;}
	.st13{fill:none;stroke:#000000;stroke-miterlimit:10;}
	.st14{fill:#5C539F;}
	.st15{display:inline;fill:none;stroke:#000000;stroke-miterlimit:10;}
</style>
<g id="Layer_2">
	<g id="XMLID_16_">
		<g id="XMLID_29_">
			<linearGradient id="XMLID_5_" gradientUnits="userSpaceOnUse" x1="329.4" y1="178.88" x2="469.1" y2="178.88">
				<stop  offset="0" style="stop-color:#B936EE"/>
				<stop  offset="0.4089" style="stop-color:#406AFF"/>
				<stop  offset="1" style="stop-color:#B936EE"/>
			</linearGradient>
			<path id="XMLID_58_" class="st0" d="M339.6,228.1l-5.1,6.2v1.2c-0.2-0.2-0.4-0.3-0.6-0.5l-4.5,5.5l6.6,5.3l10.3-12.6L339.6,228.1
				z M374.9,224.9l-41,50.3l6.6,5.2l41-50.3L374.9,224.9z M422.5,313.9l-26.7-21l-20.5,25.2l30.4,23.9l13.1,10.2
				c3.7-10.5,8.8-20.4,15-29.4L422.5,313.9z M459.4,281l-32.9-25.9l-20.4,25.1l27.2,21.4L444,310c7.3-8.2,15.8-15.5,25.1-21.5
				L459.4,281z M339.6,228.1l-5.1,6.2v1.2c-0.2-0.2-0.4-0.3-0.6-0.5l-4.5,5.5l6.6,5.3l10.3-12.6L339.6,228.1z M374.9,224.9l-41,50.3
				l6.6,5.2l41-50.3L374.9,224.9z M422.5,313.9l-26.7-21l-20.5,25.2l30.4,23.9l13.1,10.2c3.7-10.5,8.8-20.4,15-29.4L422.5,313.9z
				 M459.4,281l-32.9-25.9l-20.4,25.1l27.2,21.4L444,310c7.3-8.2,15.8-15.5,25.1-21.5L459.4,281z M459.4,281l-32.9-25.9l-20.4,25.1
				l27.2,21.4L444,310c7.3-8.2,15.8-15.5,25.1-21.5L459.4,281z M422.5,313.9l-26.7-21l-20.5,25.2l30.4,23.9l13.1,10.2
				c3.7-10.5,8.8-20.4,15-29.4L422.5,313.9z M374.9,224.9l-41,50.3l6.6,5.2l41-50.3L374.9,224.9z M339.6,228.1l-5.1,6.2v1.2
				c-0.2-0.2-0.4-0.3-0.6-0.5l-4.5,5.5l6.6,5.3l10.3-12.6L339.6,228.1z M459.4,281l-32.9-25.9l-20.4,25.1l27.2,21.4L444,310
				c7.3-8.2,15.8-15.5,25.1-21.5L459.4,281z M422.5,313.9l-26.7-21l-20.5,25.2l30.4,23.9l13.1,10.2c3.7-10.5,8.8-20.4,15-29.4
				L422.5,313.9z M374.9,224.9l-41,50.3l6.6,5.2l41-50.3L374.9,224.9z M339.6,228.1l-5.1,6.2v1.2c-0.2-0.2-0.4-0.3-0.6-0.5l-4.5,5.5
				l6.6,5.3l10.3-12.6L339.6,228.1z M459.4,281l-32.9-25.9l-20.4,25.1l27.2,21.4L444,310c7.3-8.2,15.8-15.5,25.1-21.5L459.4,281z
				 M422.5,313.9l-26.7-21l-20.5,25.2l30.4,23.9l13.1,10.2c3.7-10.5,8.8-20.4,15-29.4L422.5,313.9z M389.2,27.8
				c-14-13.7-33.3-22.2-54.7-22.2v212.6c3.4-0.3,8.2-1,15.3-2.7l6.6,5.2l5.1-6.3c5.6-6.9,16.2-7.9,23.5-2.1l6.6,5.2l5.1-6.3
				c3.7-4.5,9.4-6.5,14.9-5.7V81.6C411.8,60.6,403.2,41.6,389.2,27.8z M374.9,224.9l-41,50.3l6.6,5.2l41-50.3L374.9,224.9z
				 M339.6,228.1l-5.1,6.2v1.2c-0.2-0.2-0.4-0.3-0.6-0.5l-4.5,5.5l6.6,5.3l10.3-12.6L339.6,228.1z"/>
			<linearGradient id="XMLID_6_" gradientUnits="userSpaceOnUse" x1="338.5" y1="270.93" x2="423.5" y2="270.93">
				<stop  offset="0" style="stop-color:#B936EE"/>
				<stop  offset="0.4089" style="stop-color:#406AFF"/>
				<stop  offset="1" style="stop-color:#B936EE"/>
			</linearGradient>
			<polygon id="XMLID_49_" class="st1" points="423.5,232.1 351.8,320.2 338.5,309.8 410.2,221.7 411.8,223 420.1,229.5 			"/>
		</g>
		<g id="XMLID_100_">
			<g id="XMLID_109_">
				<linearGradient id="XMLID_7_" gradientUnits="userSpaceOnUse" x1="615.5" y1="374.88" x2="698.2" y2="374.88">
					<stop  offset="0" style="stop-color:#B936EE"/>
					<stop  offset="0.4089" style="stop-color:#406AFF"/>
					<stop  offset="1" style="stop-color:#B936EE"/>
				</linearGradient>
				<path id="XMLID_169_" class="st2" d="M686.4,252l-0.2-0.2l0,0l12,14.4L686.4,252z M615.5,497.8c0.1,0.1,0.1,0.1,0.2,0.2
					c1.4-1.1,2.9-2.3,4.2-3.5C618.5,495.6,617,496.8,615.5,497.8z"/>
				<linearGradient id="XMLID_8_" gradientUnits="userSpaceOnUse" x1="1" y1="300.33" x2="745.2006" y2="300.33">
					<stop  offset="0" style="stop-color:#B936EE"/>
					<stop  offset="0.4089" style="stop-color:#406AFF"/>
					<stop  offset="1" style="stop-color:#B936EE"/>
				</linearGradient>
				<path id="XMLID_134_" class="st3" d="M710.1,280.5l-11.9-14.3l-12-14.4l0,0c-6.6-6.7-13.7-12.8-21.2-18.4c0,0,0-0.1-0.1-0.1
					l-14.2-9.8l0,0c-28.6-18.1-62.2-29.4-98.2-31.5c-4.2-0.2-8.4-0.4-12.6-0.4c-38.6,0-74.7,10.5-105.5,28.6
					c6.7,5.8,7.9,15.7,2.4,22.5l37.3,29.3c24.7-11.1,52.1-14.1,78.4-9.6v0.8c60.3,9.8,107.3,58.6,112.8,119.3c0.4,4,0.6,8,0.6,12.1
					v1.3c0,1.1,0,2.2-0.1,3.3c-1.3,38-18.8,71.9-45.9,95.3c-1.4,1.2-2.8,2.4-4.2,3.5c-11.3,9-24,16.2-37.8,21.3c-0.2-1,0,1.1,0,0
					c-3.8,1.2-3.8,1.2-17.5,3.5c-38.2,7.7-74.9-4.7-108.5-31.1c-40.7-32-59.9-83.1-49.5-131.8L400,358l-34.9-27.4
					c-5.6,6.9-16.2,7.9-23.5,2.1l-13.3-10.4c-7.4-5.8-8.7-16.1-3-23l5.1-6.3l-6.6-5.2c-7.3-5.8-8.7-16.1-3.1-23l5.1-6.3l-6.6-5.2
					l3.3-26.5c-33-22.2-72.9-35.3-115.9-35.3c-48.4,0-93,16.5-128,44v-154c0-21-8.7-40-22.7-53.8C41.7,14,22.3,5.5,1,5.5v513.7
					c0,42,34.6,76,77.4,76V393.4c0-69.5,57.3-125.9,128-125.9s128,56.4,128,125.9c0,44,14.3,84.7,38.7,117.9
					c11,15,24,28.4,38.6,39.9c35.1,27.6,79.6,44,128.1,44c111.5,0,202.2-87.3,205.3-196.1c0.1-1.9,0.1-3.8,0.1-5.7
					C745.3,351.6,732.3,312.7,710.1,280.5z M261.3,242l6.4,2l3.6,4.1l-0.9,2.7l-4.9-1.5l0.5-1.7l-5.9-1.8L261.3,242z M111.2,269.2
					l4.4,8.3l-4.6,2.4l-11-20.7l4.6-2.4l4.4,8.3l7.1-3.6l2.2,4.1L111.2,269.2z M131.6,269.3l-4.4-8.3l-7.1,3.6l-2.2-4.1l7-3.7
					l-4.4-8.3l4.6-2.4l11,20.6L131.6,269.3z M142.8,264.1l-7.2-22.2l12.6-4l1.4,4.4l-7.6,2.4l1.5,4.6l7.6-2.4l1.4,4.4l-7.6,2.4
					l1.4,4.4l7.6-2.4l1.5,4.5L142.8,264.1z M165.4,257l-8.2,2.6l-1.5-4.5l7.6-2.4l-1.4-4.4l-7.6,2.4l-1.5-4.4l7.6-2.4l-1.5-4.6
					l-7.6,2.4l-1.4-4.3l8.1-2.6l5.3,1.3l2.2,6.7l-3.1,2.9l4.2,0.5l2.2,6.8L165.4,257z M200.4,233.1l1.1,18.7l-5.7,0.3l-1-18.7
					L184,234l-0.3-4.6l28.4-1.6l0.3,4.6L200.4,233.1z M225.6,241.9l-0.4,3.1l-6.2-0.7l-0.4,3.3l6.2,0.7l-0.5,4.3l-6.5-0.7l-4.5-3.3
					l1.4-12.2l5.1-2.3l6.5,0.7l-0.5,3.8l-6.2-0.7l-0.4,3.3L225.6,241.9z M238.1,251.3l-5.1,2.2l-6.6-0.7l0.5-4.3l6,0.7l0.2-1.3
					l5.3,0.6L238.1,251.3z M239,243.7l-5.2,2.3l-6.5-0.8l0.4-3.1l6.2,0.7l0.4-3.3l-6.2-0.7l0.4-3.8l6.5,0.7l4.5,3.3L239,243.7z
					 M253.9,258.5l-6.3-2l-3.6-4l3.7-11.8l5.3-1.3l6.4,2l-1.2,3.6l-5.9-1.8l-3,9.3l5.8,1.8L253.9,258.5z M267.6,259.8l-5.3,1.3
					l-6.4-2l1.3-4.1l5.9,1.8l0.4-1.3l5,1.5L267.6,259.8z M280.4,253.4l-6.4,12.5l-4.5-2.2l10.7-20.9l4.5,2.3l-2.5,4.9l5.6,2.8
					l-1.8,3.5L280.4,253.4z M291.4,274.5l-4.7-2.3l6.4-12.5l-5.5-2.7l1.8-3.5l6,3l2.9,4.6L291.4,274.5z"/>
				<linearGradient id="XMLID_9_" gradientUnits="userSpaceOnUse" x1="650.7" y1="228.38" x2="664.9" y2="228.38">
					<stop  offset="0" style="stop-color:#B936EE"/>
					<stop  offset="0.4089" style="stop-color:#406AFF"/>
					<stop  offset="1" style="stop-color:#B936EE"/>
				</linearGradient>
				<path id="XMLID_51_" class="st4" d="M664.9,233.3l-14.2-9.8C655.6,226.5,660.4,229.8,664.9,233.3z"/>
			</g>
		</g>
		<g id="XMLID_14_">
			<linearGradient id="XMLID_10_" gradientUnits="userSpaceOnUse" x1="481.8" y1="426.6929" x2="576.5889" y2="426.6929">
				<stop  offset="0" style="stop-color:#B936EE"/>
				<stop  offset="0.4089" style="stop-color:#406AFF"/>
				<stop  offset="1" style="stop-color:#B936EE"/>
			</linearGradient>
			<path id="XMLID_157_" class="st5" d="M537.3,459.6c-1.9,3-6,3.8-9.1,1.9c-2.2-1.3-3.3-3.6-3.3-5.8L507.2,445l0.4-33.2l-25.8-15.6
				l3.3-5.3l26,15.7l29.4-15l25.9,15.7c2-1.1,4.7-1.1,6.9,0.2c3.2,1.9,4.2,5.9,2.4,8.8c-1.9,3-5.9,3.9-9.1,1.9
				c-2.1-1.3-3.3-3.4-3.3-5.6L540.5,399l-26.4,12.9l-0.4,29.8l14.4,8.7c2-1,4.6-1,6.7,0.3C538.1,452.7,539.2,456.6,537.3,459.6z"/>
			<linearGradient id="XMLID_11_" gradientUnits="userSpaceOnUse" x1="529.2" y1="353.9149" x2="615.7889" y2="353.9149">
				<stop  offset="0" style="stop-color:#B936EE"/>
				<stop  offset="0.4089" style="stop-color:#406AFF"/>
				<stop  offset="1" style="stop-color:#B936EE"/>
			</linearGradient>
			<path id="XMLID_158_" class="st6" d="M555.2,336.4l-26-15.7l3.3-5.3l25.8,15.6l29.9-15.3l17.7,10.7c2-1,4.5-1,6.6,0.3
				c3.2,1.9,4.2,5.9,2.4,8.9c-1.9,3-5.9,3.9-9.1,1.9c-2.2-1.3-3.4-3.6-3.3-5.9l-14.4-8.7l-26.4,13.5l-0.4,29.2l24.3,14.7
				c2-1,4.5-0.9,6.5,0.3c3.2,1.9,4.2,5.9,2.4,8.9c-1.9,3-5.9,3.9-9.1,1.9c-2.2-1.3-3.4-3.6-3.3-5.9l-27.4-16.6L555.2,336.4z"/>
			<linearGradient id="XMLID_12_" gradientUnits="userSpaceOnUse" x1="485.4" y1="355.68" x2="524.5761" y2="355.68">
				<stop  offset="0" style="stop-color:#B936EE"/>
				<stop  offset="0.4089" style="stop-color:#406AFF"/>
				<stop  offset="1" style="stop-color:#B936EE"/>
			</linearGradient>
			<path id="XMLID_41_" class="st7" d="M512.7,351.2c2.4-6.6,2.8-14,0.8-21.5l9.5-2c2.7,10,1.8,19.9-1.7,28.6
				c-1,2.4-2.1,4.7-3.5,6.8c-6.3,10.1-16.8,17.8-29.9,20.6l-2.5-9.2c8.3-1.8,15.3-6,20.4-11.8c2.4-2.7,4.4-5.8,5.8-9.1
				C512.1,352.9,512.4,352.1,512.7,351.2z"/>
			<linearGradient id="XMLID_13_" gradientUnits="userSpaceOnUse" x1="481.5" y1="349.68" x2="508.1201" y2="349.68">
				<stop  offset="0" style="stop-color:#B936EE"/>
				<stop  offset="0.4089" style="stop-color:#406AFF"/>
				<stop  offset="1" style="stop-color:#B936EE"/>
			</linearGradient>
			<path id="XMLID_31_" class="st8" d="M498.3,342.5c0.6-3,0.5-6.2-0.4-9.4l9.2-2c1.5,5.7,1.3,11.4-0.3,16.5
				c-0.3,0.9-0.6,1.7-0.9,2.6c-1.4,3.4-3.4,6.4-5.8,9.1c-4.2,4.4-9.7,7.6-16.2,9l-2.4-8.9c4-0.9,7.5-2.7,10.2-5.1s4.8-5.6,5.9-9
				C497.8,344.3,498.1,343.4,498.3,342.5z"/>
			<linearGradient id="XMLID_18_" gradientUnits="userSpaceOnUse" x1="434.4" y1="330.3641" x2="491.817" y2="330.3641">
				<stop  offset="0" style="stop-color:#B936EE"/>
				<stop  offset="0.4089" style="stop-color:#406AFF"/>
				<stop  offset="1" style="stop-color:#B936EE"/>
			</linearGradient>
			<path id="XMLID_23_" class="st9" d="M439.3,311.2l0.5-0.9l41.4,25c0.2-0.1,0.4-0.1,0.6-0.2c2.2-0.5,4.3,0,6.1,1.1
				s3.1,2.8,3.7,4.9c0,0.2,0.1,0.4,0.1,0.6c0.7,4-1.8,7.7-5.9,8.6c-0.2,0-0.4,0.1-0.6,0.1c-3.9,0.5-7.7-1.8-9-5.4l-41.8-25.3
				C435.9,316.8,437.5,314,439.3,311.2z"/>
		</g>
	</g>
</g>
<g id="base_shap_think" class="st10">
	<g id="XMLID_1_" class="st11">
		<path id="XMLID_3_" class="st12" d="M390.6,87.9l-1.3,1.6v0.3c0,0-0.1-0.1-0.2-0.1l-1.1,1.4l1.7,1.3l2.6-3.2L390.6,87.9z
			 M399.5,87.1l-10.4,13l1.7,1.3l10.4-13L399.5,87.1z M404.8,104.6l-5.2,6.5l11,8.8c0.9-2.7,2.2-5.3,3.8-7.6L404.8,104.6z
			 M412.5,94.8l-5.2,6.5l9.6,7.7c1.9-2.1,4-4,6.4-5.5L412.5,94.8z M390.6,87.9l-1.3,1.6v0.3c0,0-0.1-0.1-0.2-0.1l-1.1,1.4l1.7,1.3
			l2.6-3.2L390.6,87.9z M399.5,87.1l-10.4,13l1.7,1.3l10.4-13L399.5,87.1z M404.8,104.6l-5.2,6.5l11,8.8c0.9-2.7,2.2-5.3,3.8-7.6
			L404.8,104.6z M412.5,94.8l-5.2,6.5l9.6,7.7c1.9-2.1,4-4,6.4-5.5L412.5,94.8z M441.2,78.5c-9.8,0-18.9,2.7-26.7,7.4
			c1.7,1.5,2,4,0.6,5.8l9.4,7.5c11.6-5.3,25.5-3.5,35.8,4.8c2.6,2.1,4.9,4.5,6.8,7.1c0.1,0.1,0.1,0.2,0.2,0.2c3.7,5,6,11.2,6.3,17.8
			v0.1c0.4,7.8-1.8,15.7-7,22.1c-11.4,14.3-32.8,16.3-47.6,4.4c-10.3-8.2-15.2-21.4-12.5-33.9l-9.4-7.5c-1.4,1.8-4.1,2-5.9,0.5
			l-3.4-2.7c-1.9-1.5-2.2-4.1-0.8-5.9l1.3-1.6l-1.7-1.3c-1.9-1.5-2.2-4.1-0.8-5.9l1.3-1.6l-1.7-1.3l0.8-6.8
			c-8.3-5.7-18.4-9.1-29.3-9.1c-12.2,0-23.5,4.2-32.4,11.3V50.2c0-5.4-2.2-10.3-5.7-13.8s-8.4-5.7-13.8-5.7v132.2
			c0,10.8,8.8,19.6,19.6,19.6v-52c0-17.9,14.5-32.4,32.4-32.4s32.4,14.5,32.4,32.4c0,11.3,3.6,21.8,9.8,30.3l0,0
			c2.8,3.9,6.1,7.3,9.8,10.3c8.9,7.1,20.1,11.3,32.4,11.3c28.7,0,51.9-23.3,51.9-52C493.2,101.7,469.9,78.5,441.2,78.5z M412.5,94.8
			l-5.2,6.5l9.6,7.7c1.9-2.1,4-4,6.4-5.5L412.5,94.8z M404.8,104.6l-5.2,6.5l11,8.8c0.9-2.7,2.2-5.3,3.8-7.6L404.8,104.6z
			 M399.5,87.1l-10.4,13l1.7,1.3l10.4-13L399.5,87.1z M390.6,87.9l-1.3,1.6v0.3c0,0-0.1-0.1-0.2-0.1l-1.1,1.4l1.7,1.3l2.6-3.2
			L390.6,87.9z M412.5,94.8l-5.2,6.5l9.6,7.7c1.9-2.1,4-4,6.4-5.5L412.5,94.8z M404.8,104.6l-5.2,6.5l11,8.8
			c0.9-2.7,2.2-5.3,3.8-7.6L404.8,104.6z M399.5,87.1l-10.4,13l1.7,1.3l10.4-13L399.5,87.1z M390.6,87.9l-1.3,1.6v0.3
			c0,0-0.1-0.1-0.2-0.1l-1.1,1.4l1.7,1.3l2.6-3.2L390.6,87.9z M412.5,94.8l-5.2,6.5l9.6,7.7c1.9-2.1,4-4,6.4-5.5L412.5,94.8z
			 M404.8,104.6l-5.2,6.5l11,8.8c0.9-2.7,2.2-5.3,3.8-7.6L404.8,104.6z M403.1,36.3c-3.5-3.5-8.4-5.7-13.8-5.7v54.7
			c0.9-0.1,2.1-0.3,3.9-0.7l1.7,1.3l1.3-1.6c1.4-1.8,4.1-2,5.9-0.5l1.7,1.3l1.3-1.6c0.9-1.2,2.4-1.7,3.8-1.5V50.2
			C408.8,44.8,406.6,39.9,403.1,36.3z M399.5,87.1l-10.4,13l1.7,1.3l10.4-13L399.5,87.1z M390.6,87.9l-1.3,1.6v0.3
			c0,0-0.1-0.1-0.2-0.1l-1.1,1.4l1.7,1.3l2.6-3.2L390.6,87.9z"/>
		<polygon id="XMLID_2_" class="st12" points="411.8,88.9 393.6,111.6 390.3,108.9 408.4,86.2 408.8,86.6 410.9,88.2 		"/>
	</g>
</g>
<g id="Base_Shap" class="st10">
	<g id="XMLID_17_" class="st11">
		<circle id="XMLID_48_" class="st13" cx="625.7" cy="133.7" r="36.8"/>
		<circle id="XMLID_47_" class="st13" cx="625.7" cy="133.7" r="59"/>
		<circle id="XMLID_46_" class="st13" cx="721.5" cy="133.7" r="36.8"/>
		<circle id="XMLID_45_" class="st13" cx="721.5" cy="133.7" r="59"/>
		<path id="XMLID_44_" class="st13" d="M588.9,192.7L588.9,192.7c-12.3,0-22.2-9.9-22.2-22.2V20.3l0,0c12.3,0,22.2,9.9,22.2,22.2
			V192.7z"/>
		<path id="XMLID_43_" class="st13" d="M684.7,192.7h-22.2V20.3l0,0c12.3,0,22.2,9.9,22.2,22.2V192.7z"/>
		<g id="Group_27" transform="translate(-509 -89)">
			<path id="Path_31" class="st14" d="M1222.9,199l8.3,20.6l6.6-7.6l1.4,34.4l-7-20.6l-6.6,7.6L1222.9,199z"/>
			<path id="Path_32" class="st12" d="M1204.4,250.3c16.1,14.1,40.5,12.5,54.6-3.6s12.5-40.5-3.6-54.6c-11.1-9.8-26.9-12.3-40.5-6.6
				l-10.2-9c1.8-2,1.6-5.1-0.5-6.8l-3.6-3.2c-2-1.8-5.1-1.6-6.8,0.5l-1.6,1.8l-1.8-1.6c-2-1.8-5.1-1.6-6.8,0.5l-1.6,1.8l-1.8-1.6
				c-2-1.8-5.1-1.6-6.8,0.5l-3.2,3.6c-1.8,2-1.6,5.1,0.5,6.8l1.8,1.6l-1.6,1.8c-1.8,2-1.6,5.1,0.5,6.8l1.8,1.6l-1.6,1.8
				c-1.8,2-1.6,5.1,0.5,6.8l3.6,3.2c2,1.8,5.1,1.6,6.8-0.5l10.2,9C1188.7,225.3,1193.2,240.5,1204.4,250.3z M1173.7,175.2l3.2-3.6
				l1.8,1.6l-3.2,3.6L1173.7,175.2z M1174.4,185.4l12.7-14.5l1.8,1.6l-12.7,14.5L1174.4,185.4z M1175.1,195.7l22.3-25.5l3.6,3.2
				l-22.3,25.5L1175.1,195.7z M1197.6,210.9l0.5-1.5l-12.6-11l6.4-7.3l10.9,9.6l3.2-3.6l-10.9-9.6l6.4-7.3l12.6,11l1.4-0.7
				c16.9-8,37.1-0.7,45,16.2c8,16.9,0.7,37.1-16.2,45c-16.9,8-37.1,0.7-45-16.2C1195.6,227.9,1195,219.1,1197.6,210.9L1197.6,210.9z
				"/>
		</g>
	</g>
</g>
<g id="golden_ratio" class="st10">
	<circle id="XMLID_33_" class="st15" cx="139" cy="126.1" r="6.6"/>
	<circle id="XMLID_34_" class="st15" cx="139" cy="126.1" r="13.1"/>
	<g id="XMLID_15_" class="st11">
		<circle id="XMLID_35_" class="st13" cx="139" cy="126.1" r="19.6"/>
		<circle id="XMLID_36_" class="st13" cx="139" cy="126.1" r="32.5"/>
		<circle id="XMLID_37_" class="st13" cx="139" cy="126.1" r="52.1"/>
		<circle id="XMLID_28_" class="st13" cx="139" cy="126.1" r="84.3"/>
	</g>
</g>
</svg>
